<mxfile host="app.diagrams.net" agent="Mozilla/5.0 (Windows NT 10.0; Win64; x64) AppleWebKit/537.36 (KHTML, like Gecko) Chrome/134.0.0.0 Safari/537.36" version="26.1.3">
  <diagram id="R2lEEEUBdFMjLlhIrx00" name="Page-1">
    <mxGraphModel dx="2206" dy="2288" grid="1" gridSize="10" guides="1" tooltips="1" connect="1" arrows="1" fold="1" page="1" pageScale="1" pageWidth="850" pageHeight="1100" math="0" shadow="0" extFonts="Permanent Marker^https://fonts.googleapis.com/css?family=Permanent+Marker">
      <root>
        <mxCell id="0" />
        <mxCell id="1" parent="0" />
        <mxCell id="DnhSPiRuNs9u9aYc0qHc-10" value="Herramienta" style="shape=table;startSize=30;container=1;collapsible=1;childLayout=tableLayout;fixedRows=1;rowLines=0;fontStyle=1;align=center;resizeLast=1;" vertex="1" parent="1">
          <mxGeometry x="1410" y="-320" width="250" height="100" as="geometry" />
        </mxCell>
        <mxCell id="DnhSPiRuNs9u9aYc0qHc-11" value="" style="shape=partialRectangle;collapsible=0;dropTarget=0;pointerEvents=0;fillColor=none;points=[[0,0.5],[1,0.5]];portConstraint=eastwest;top=0;left=0;right=0;bottom=1;" vertex="1" parent="DnhSPiRuNs9u9aYc0qHc-10">
          <mxGeometry y="30" width="250" height="30" as="geometry" />
        </mxCell>
        <mxCell id="DnhSPiRuNs9u9aYc0qHc-12" value="PK" style="shape=partialRectangle;overflow=hidden;connectable=0;fillColor=none;top=0;left=0;bottom=0;right=0;fontStyle=1;" vertex="1" parent="DnhSPiRuNs9u9aYc0qHc-11">
          <mxGeometry width="30" height="30" as="geometry">
            <mxRectangle width="30" height="30" as="alternateBounds" />
          </mxGeometry>
        </mxCell>
        <mxCell id="DnhSPiRuNs9u9aYc0qHc-13" value="id int not null" style="shape=partialRectangle;overflow=hidden;connectable=0;fillColor=none;top=0;left=0;bottom=0;right=0;align=left;spacingLeft=6;fontStyle=5;" vertex="1" parent="DnhSPiRuNs9u9aYc0qHc-11">
          <mxGeometry x="30" width="220" height="30" as="geometry">
            <mxRectangle width="220" height="30" as="alternateBounds" />
          </mxGeometry>
        </mxCell>
        <mxCell id="DnhSPiRuNs9u9aYc0qHc-14" value="" style="shape=partialRectangle;collapsible=0;dropTarget=0;pointerEvents=0;fillColor=none;points=[[0,0.5],[1,0.5]];portConstraint=eastwest;top=0;left=0;right=0;bottom=0;" vertex="1" parent="DnhSPiRuNs9u9aYc0qHc-10">
          <mxGeometry y="60" width="250" height="30" as="geometry" />
        </mxCell>
        <mxCell id="DnhSPiRuNs9u9aYc0qHc-15" value="" style="shape=partialRectangle;overflow=hidden;connectable=0;fillColor=none;top=0;left=0;bottom=0;right=0;" vertex="1" parent="DnhSPiRuNs9u9aYc0qHc-14">
          <mxGeometry width="30" height="30" as="geometry">
            <mxRectangle width="30" height="30" as="alternateBounds" />
          </mxGeometry>
        </mxCell>
        <mxCell id="DnhSPiRuNs9u9aYc0qHc-16" value="nombre char(50) NOT NULL" style="shape=partialRectangle;overflow=hidden;connectable=0;fillColor=none;top=0;left=0;bottom=0;right=0;align=left;spacingLeft=6;" vertex="1" parent="DnhSPiRuNs9u9aYc0qHc-14">
          <mxGeometry x="30" width="220" height="30" as="geometry">
            <mxRectangle width="220" height="30" as="alternateBounds" />
          </mxGeometry>
        </mxCell>
        <mxCell id="DnhSPiRuNs9u9aYc0qHc-17" value="Proveedor" style="shape=table;startSize=30;container=1;collapsible=1;childLayout=tableLayout;fixedRows=1;rowLines=0;fontStyle=1;align=center;resizeLast=1;" vertex="1" parent="1">
          <mxGeometry x="600" y="640" width="250" height="100" as="geometry" />
        </mxCell>
        <mxCell id="DnhSPiRuNs9u9aYc0qHc-18" value="" style="shape=partialRectangle;collapsible=0;dropTarget=0;pointerEvents=0;fillColor=none;points=[[0,0.5],[1,0.5]];portConstraint=eastwest;top=0;left=0;right=0;bottom=1;" vertex="1" parent="DnhSPiRuNs9u9aYc0qHc-17">
          <mxGeometry y="30" width="250" height="30" as="geometry" />
        </mxCell>
        <mxCell id="DnhSPiRuNs9u9aYc0qHc-19" value="PK" style="shape=partialRectangle;overflow=hidden;connectable=0;fillColor=none;top=0;left=0;bottom=0;right=0;fontStyle=1;" vertex="1" parent="DnhSPiRuNs9u9aYc0qHc-18">
          <mxGeometry width="30" height="30" as="geometry">
            <mxRectangle width="30" height="30" as="alternateBounds" />
          </mxGeometry>
        </mxCell>
        <mxCell id="DnhSPiRuNs9u9aYc0qHc-20" value="id int not null" style="shape=partialRectangle;overflow=hidden;connectable=0;fillColor=none;top=0;left=0;bottom=0;right=0;align=left;spacingLeft=6;fontStyle=5;" vertex="1" parent="DnhSPiRuNs9u9aYc0qHc-18">
          <mxGeometry x="30" width="220" height="30" as="geometry">
            <mxRectangle width="220" height="30" as="alternateBounds" />
          </mxGeometry>
        </mxCell>
        <mxCell id="DnhSPiRuNs9u9aYc0qHc-21" value="" style="shape=partialRectangle;collapsible=0;dropTarget=0;pointerEvents=0;fillColor=none;points=[[0,0.5],[1,0.5]];portConstraint=eastwest;top=0;left=0;right=0;bottom=0;" vertex="1" parent="DnhSPiRuNs9u9aYc0qHc-17">
          <mxGeometry y="60" width="250" height="30" as="geometry" />
        </mxCell>
        <mxCell id="DnhSPiRuNs9u9aYc0qHc-22" value="" style="shape=partialRectangle;overflow=hidden;connectable=0;fillColor=none;top=0;left=0;bottom=0;right=0;" vertex="1" parent="DnhSPiRuNs9u9aYc0qHc-21">
          <mxGeometry width="30" height="30" as="geometry">
            <mxRectangle width="30" height="30" as="alternateBounds" />
          </mxGeometry>
        </mxCell>
        <mxCell id="DnhSPiRuNs9u9aYc0qHc-23" value="nombre char(50) NOT NULL" style="shape=partialRectangle;overflow=hidden;connectable=0;fillColor=none;top=0;left=0;bottom=0;right=0;align=left;spacingLeft=6;" vertex="1" parent="DnhSPiRuNs9u9aYc0qHc-21">
          <mxGeometry x="30" width="220" height="30" as="geometry">
            <mxRectangle width="220" height="30" as="alternateBounds" />
          </mxGeometry>
        </mxCell>
        <mxCell id="DnhSPiRuNs9u9aYc0qHc-26" value="Proyecto" style="shape=table;startSize=30;container=1;collapsible=1;childLayout=tableLayout;fixedRows=1;rowLines=0;fontStyle=1;align=center;resizeLast=1;" vertex="1" parent="1">
          <mxGeometry x="1710" y="640" width="250" height="150" as="geometry" />
        </mxCell>
        <mxCell id="DnhSPiRuNs9u9aYc0qHc-27" value="" style="shape=partialRectangle;collapsible=0;dropTarget=0;pointerEvents=0;fillColor=none;points=[[0,0.5],[1,0.5]];portConstraint=eastwest;top=0;left=0;right=0;bottom=1;" vertex="1" parent="DnhSPiRuNs9u9aYc0qHc-26">
          <mxGeometry y="30" width="250" height="30" as="geometry" />
        </mxCell>
        <mxCell id="DnhSPiRuNs9u9aYc0qHc-28" value="PK" style="shape=partialRectangle;overflow=hidden;connectable=0;fillColor=none;top=0;left=0;bottom=0;right=0;fontStyle=1;" vertex="1" parent="DnhSPiRuNs9u9aYc0qHc-27">
          <mxGeometry width="30" height="30" as="geometry">
            <mxRectangle width="30" height="30" as="alternateBounds" />
          </mxGeometry>
        </mxCell>
        <mxCell id="DnhSPiRuNs9u9aYc0qHc-29" value="id int NOT NULL" style="shape=partialRectangle;overflow=hidden;connectable=0;fillColor=none;top=0;left=0;bottom=0;right=0;align=left;spacingLeft=6;fontStyle=5;" vertex="1" parent="DnhSPiRuNs9u9aYc0qHc-27">
          <mxGeometry x="30" width="220" height="30" as="geometry">
            <mxRectangle width="220" height="30" as="alternateBounds" />
          </mxGeometry>
        </mxCell>
        <mxCell id="DnhSPiRuNs9u9aYc0qHc-30" value="" style="shape=partialRectangle;collapsible=0;dropTarget=0;pointerEvents=0;fillColor=none;points=[[0,0.5],[1,0.5]];portConstraint=eastwest;top=0;left=0;right=0;bottom=0;" vertex="1" parent="DnhSPiRuNs9u9aYc0qHc-26">
          <mxGeometry y="60" width="250" height="90" as="geometry" />
        </mxCell>
        <mxCell id="DnhSPiRuNs9u9aYc0qHc-31" value="" style="shape=partialRectangle;overflow=hidden;connectable=0;fillColor=none;top=0;left=0;bottom=0;right=0;" vertex="1" parent="DnhSPiRuNs9u9aYc0qHc-30">
          <mxGeometry width="30" height="90" as="geometry">
            <mxRectangle width="30" height="90" as="alternateBounds" />
          </mxGeometry>
        </mxCell>
        <mxCell id="DnhSPiRuNs9u9aYc0qHc-32" value="nombre char(50) NOT NULL" style="shape=partialRectangle;overflow=hidden;connectable=0;fillColor=none;top=0;left=0;bottom=0;right=0;align=left;spacingLeft=6;" vertex="1" parent="DnhSPiRuNs9u9aYc0qHc-30">
          <mxGeometry x="30" width="220" height="90" as="geometry">
            <mxRectangle width="220" height="90" as="alternateBounds" />
          </mxGeometry>
        </mxCell>
        <mxCell id="DnhSPiRuNs9u9aYc0qHc-33" value="Venta" style="shape=table;startSize=30;container=1;collapsible=1;childLayout=tableLayout;fixedRows=1;rowLines=0;fontStyle=1;align=center;resizeLast=1;" vertex="1" parent="1">
          <mxGeometry x="1460" y="320" width="250" height="150" as="geometry" />
        </mxCell>
        <mxCell id="DnhSPiRuNs9u9aYc0qHc-34" value="" style="shape=partialRectangle;collapsible=0;dropTarget=0;pointerEvents=0;fillColor=none;points=[[0,0.5],[1,0.5]];portConstraint=eastwest;top=0;left=0;right=0;bottom=1;" vertex="1" parent="DnhSPiRuNs9u9aYc0qHc-33">
          <mxGeometry y="30" width="250" height="30" as="geometry" />
        </mxCell>
        <mxCell id="DnhSPiRuNs9u9aYc0qHc-35" value="PK" style="shape=partialRectangle;overflow=hidden;connectable=0;fillColor=none;top=0;left=0;bottom=0;right=0;fontStyle=1;" vertex="1" parent="DnhSPiRuNs9u9aYc0qHc-34">
          <mxGeometry width="30" height="30" as="geometry">
            <mxRectangle width="30" height="30" as="alternateBounds" />
          </mxGeometry>
        </mxCell>
        <mxCell id="DnhSPiRuNs9u9aYc0qHc-36" value="id int NOT NULL" style="shape=partialRectangle;overflow=hidden;connectable=0;fillColor=none;top=0;left=0;bottom=0;right=0;align=left;spacingLeft=6;fontStyle=5;" vertex="1" parent="DnhSPiRuNs9u9aYc0qHc-34">
          <mxGeometry x="30" width="220" height="30" as="geometry">
            <mxRectangle width="220" height="30" as="alternateBounds" />
          </mxGeometry>
        </mxCell>
        <mxCell id="DnhSPiRuNs9u9aYc0qHc-37" value="" style="shape=partialRectangle;collapsible=0;dropTarget=0;pointerEvents=0;fillColor=none;points=[[0,0.5],[1,0.5]];portConstraint=eastwest;top=0;left=0;right=0;bottom=0;" vertex="1" parent="DnhSPiRuNs9u9aYc0qHc-33">
          <mxGeometry y="60" width="250" height="90" as="geometry" />
        </mxCell>
        <mxCell id="DnhSPiRuNs9u9aYc0qHc-38" value="" style="shape=partialRectangle;overflow=hidden;connectable=0;fillColor=none;top=0;left=0;bottom=0;right=0;" vertex="1" parent="DnhSPiRuNs9u9aYc0qHc-37">
          <mxGeometry width="30" height="90" as="geometry">
            <mxRectangle width="30" height="90" as="alternateBounds" />
          </mxGeometry>
        </mxCell>
        <mxCell id="DnhSPiRuNs9u9aYc0qHc-39" value="nombre char(50) NOT NULL" style="shape=partialRectangle;overflow=hidden;connectable=0;fillColor=none;top=0;left=0;bottom=0;right=0;align=left;spacingLeft=6;" vertex="1" parent="DnhSPiRuNs9u9aYc0qHc-37">
          <mxGeometry x="30" width="220" height="90" as="geometry">
            <mxRectangle width="220" height="90" as="alternateBounds" />
          </mxGeometry>
        </mxCell>
        <mxCell id="DnhSPiRuNs9u9aYc0qHc-40" value="Compra" style="shape=table;startSize=30;container=1;collapsible=1;childLayout=tableLayout;fixedRows=1;rowLines=0;fontStyle=1;align=center;resizeLast=1;" vertex="1" parent="1">
          <mxGeometry x="850" y="320" width="250" height="150" as="geometry" />
        </mxCell>
        <mxCell id="DnhSPiRuNs9u9aYc0qHc-41" value="" style="shape=partialRectangle;collapsible=0;dropTarget=0;pointerEvents=0;fillColor=none;points=[[0,0.5],[1,0.5]];portConstraint=eastwest;top=0;left=0;right=0;bottom=1;" vertex="1" parent="DnhSPiRuNs9u9aYc0qHc-40">
          <mxGeometry y="30" width="250" height="30" as="geometry" />
        </mxCell>
        <mxCell id="DnhSPiRuNs9u9aYc0qHc-42" value="PK" style="shape=partialRectangle;overflow=hidden;connectable=0;fillColor=none;top=0;left=0;bottom=0;right=0;fontStyle=1;" vertex="1" parent="DnhSPiRuNs9u9aYc0qHc-41">
          <mxGeometry width="30" height="30" as="geometry">
            <mxRectangle width="30" height="30" as="alternateBounds" />
          </mxGeometry>
        </mxCell>
        <mxCell id="DnhSPiRuNs9u9aYc0qHc-43" value="id int NOT NULL" style="shape=partialRectangle;overflow=hidden;connectable=0;fillColor=none;top=0;left=0;bottom=0;right=0;align=left;spacingLeft=6;fontStyle=5;" vertex="1" parent="DnhSPiRuNs9u9aYc0qHc-41">
          <mxGeometry x="30" width="220" height="30" as="geometry">
            <mxRectangle width="220" height="30" as="alternateBounds" />
          </mxGeometry>
        </mxCell>
        <mxCell id="DnhSPiRuNs9u9aYc0qHc-44" value="" style="shape=partialRectangle;collapsible=0;dropTarget=0;pointerEvents=0;fillColor=none;points=[[0,0.5],[1,0.5]];portConstraint=eastwest;top=0;left=0;right=0;bottom=0;" vertex="1" parent="DnhSPiRuNs9u9aYc0qHc-40">
          <mxGeometry y="60" width="250" height="90" as="geometry" />
        </mxCell>
        <mxCell id="DnhSPiRuNs9u9aYc0qHc-45" value="" style="shape=partialRectangle;overflow=hidden;connectable=0;fillColor=none;top=0;left=0;bottom=0;right=0;" vertex="1" parent="DnhSPiRuNs9u9aYc0qHc-44">
          <mxGeometry width="30" height="90" as="geometry">
            <mxRectangle width="30" height="90" as="alternateBounds" />
          </mxGeometry>
        </mxCell>
        <mxCell id="DnhSPiRuNs9u9aYc0qHc-46" value="nombre char(50) NOT NULL" style="shape=partialRectangle;overflow=hidden;connectable=0;fillColor=none;top=0;left=0;bottom=0;right=0;align=left;spacingLeft=6;" vertex="1" parent="DnhSPiRuNs9u9aYc0qHc-44">
          <mxGeometry x="30" width="220" height="90" as="geometry">
            <mxRectangle width="220" height="90" as="alternateBounds" />
          </mxGeometry>
        </mxCell>
        <mxCell id="DnhSPiRuNs9u9aYc0qHc-47" value="Transacción" style="shape=table;startSize=30;container=1;collapsible=1;childLayout=tableLayout;fixedRows=1;rowLines=0;fontStyle=1;align=center;resizeLast=1;" vertex="1" parent="1">
          <mxGeometry x="1150" y="640" width="250" height="150" as="geometry" />
        </mxCell>
        <mxCell id="DnhSPiRuNs9u9aYc0qHc-48" value="" style="shape=partialRectangle;collapsible=0;dropTarget=0;pointerEvents=0;fillColor=none;points=[[0,0.5],[1,0.5]];portConstraint=eastwest;top=0;left=0;right=0;bottom=1;" vertex="1" parent="DnhSPiRuNs9u9aYc0qHc-47">
          <mxGeometry y="30" width="250" height="30" as="geometry" />
        </mxCell>
        <mxCell id="DnhSPiRuNs9u9aYc0qHc-49" value="PK" style="shape=partialRectangle;overflow=hidden;connectable=0;fillColor=none;top=0;left=0;bottom=0;right=0;fontStyle=1;" vertex="1" parent="DnhSPiRuNs9u9aYc0qHc-48">
          <mxGeometry width="30" height="30" as="geometry">
            <mxRectangle width="30" height="30" as="alternateBounds" />
          </mxGeometry>
        </mxCell>
        <mxCell id="DnhSPiRuNs9u9aYc0qHc-50" value="id int NOT NULL" style="shape=partialRectangle;overflow=hidden;connectable=0;fillColor=none;top=0;left=0;bottom=0;right=0;align=left;spacingLeft=6;fontStyle=5;" vertex="1" parent="DnhSPiRuNs9u9aYc0qHc-48">
          <mxGeometry x="30" width="220" height="30" as="geometry">
            <mxRectangle width="220" height="30" as="alternateBounds" />
          </mxGeometry>
        </mxCell>
        <mxCell id="DnhSPiRuNs9u9aYc0qHc-51" value="" style="shape=partialRectangle;collapsible=0;dropTarget=0;pointerEvents=0;fillColor=none;points=[[0,0.5],[1,0.5]];portConstraint=eastwest;top=0;left=0;right=0;bottom=0;" vertex="1" parent="DnhSPiRuNs9u9aYc0qHc-47">
          <mxGeometry y="60" width="250" height="90" as="geometry" />
        </mxCell>
        <mxCell id="DnhSPiRuNs9u9aYc0qHc-52" value="" style="shape=partialRectangle;overflow=hidden;connectable=0;fillColor=none;top=0;left=0;bottom=0;right=0;" vertex="1" parent="DnhSPiRuNs9u9aYc0qHc-51">
          <mxGeometry width="30" height="90" as="geometry">
            <mxRectangle width="30" height="90" as="alternateBounds" />
          </mxGeometry>
        </mxCell>
        <mxCell id="DnhSPiRuNs9u9aYc0qHc-53" value="nombre char(50) NOT NULL&#xa;tipo char(3) NOT NULL" style="shape=partialRectangle;overflow=hidden;connectable=0;fillColor=none;top=0;left=0;bottom=0;right=0;align=left;spacingLeft=6;" vertex="1" parent="DnhSPiRuNs9u9aYc0qHc-51">
          <mxGeometry x="30" width="220" height="90" as="geometry">
            <mxRectangle width="220" height="90" as="alternateBounds" />
          </mxGeometry>
        </mxCell>
        <mxCell id="DnhSPiRuNs9u9aYc0qHc-55" value="Inventario" style="shape=table;startSize=30;container=1;collapsible=1;childLayout=tableLayout;fixedRows=1;rowLines=0;fontStyle=1;align=center;resizeLast=1;" vertex="1" parent="1">
          <mxGeometry x="1150" width="250" height="150" as="geometry" />
        </mxCell>
        <mxCell id="DnhSPiRuNs9u9aYc0qHc-56" value="" style="shape=partialRectangle;collapsible=0;dropTarget=0;pointerEvents=0;fillColor=none;points=[[0,0.5],[1,0.5]];portConstraint=eastwest;top=0;left=0;right=0;bottom=1;" vertex="1" parent="DnhSPiRuNs9u9aYc0qHc-55">
          <mxGeometry y="30" width="250" height="30" as="geometry" />
        </mxCell>
        <mxCell id="DnhSPiRuNs9u9aYc0qHc-57" value="PK" style="shape=partialRectangle;overflow=hidden;connectable=0;fillColor=none;top=0;left=0;bottom=0;right=0;fontStyle=1;" vertex="1" parent="DnhSPiRuNs9u9aYc0qHc-56">
          <mxGeometry width="30" height="30" as="geometry">
            <mxRectangle width="30" height="30" as="alternateBounds" />
          </mxGeometry>
        </mxCell>
        <mxCell id="DnhSPiRuNs9u9aYc0qHc-58" value="id int NOT NULL" style="shape=partialRectangle;overflow=hidden;connectable=0;fillColor=none;top=0;left=0;bottom=0;right=0;align=left;spacingLeft=6;fontStyle=5;" vertex="1" parent="DnhSPiRuNs9u9aYc0qHc-56">
          <mxGeometry x="30" width="220" height="30" as="geometry">
            <mxRectangle width="220" height="30" as="alternateBounds" />
          </mxGeometry>
        </mxCell>
        <mxCell id="DnhSPiRuNs9u9aYc0qHc-59" value="" style="shape=partialRectangle;collapsible=0;dropTarget=0;pointerEvents=0;fillColor=none;points=[[0,0.5],[1,0.5]];portConstraint=eastwest;top=0;left=0;right=0;bottom=0;" vertex="1" parent="DnhSPiRuNs9u9aYc0qHc-55">
          <mxGeometry y="60" width="250" height="90" as="geometry" />
        </mxCell>
        <mxCell id="DnhSPiRuNs9u9aYc0qHc-60" value="" style="shape=partialRectangle;overflow=hidden;connectable=0;fillColor=none;top=0;left=0;bottom=0;right=0;" vertex="1" parent="DnhSPiRuNs9u9aYc0qHc-59">
          <mxGeometry width="30" height="90" as="geometry">
            <mxRectangle width="30" height="90" as="alternateBounds" />
          </mxGeometry>
        </mxCell>
        <mxCell id="DnhSPiRuNs9u9aYc0qHc-61" value="código int(8) NOT NULL&#xa;nombre char(50) NOT NULL&#xa;tipo char(2) NOT NULL" style="shape=partialRectangle;overflow=hidden;connectable=0;fillColor=none;top=0;left=0;bottom=0;right=0;align=left;spacingLeft=6;" vertex="1" parent="DnhSPiRuNs9u9aYc0qHc-59">
          <mxGeometry x="30" width="220" height="90" as="geometry">
            <mxRectangle width="220" height="90" as="alternateBounds" />
          </mxGeometry>
        </mxCell>
        <mxCell id="DnhSPiRuNs9u9aYc0qHc-63" value="" style="rhombus;whiteSpace=wrap;html=1;" vertex="1" parent="1">
          <mxGeometry x="935" y="150" width="80" height="70" as="geometry" />
        </mxCell>
        <mxCell id="DnhSPiRuNs9u9aYc0qHc-64" value="" style="rhombus;whiteSpace=wrap;html=1;" vertex="1" parent="1">
          <mxGeometry x="1545" y="150" width="80" height="70" as="geometry" />
        </mxCell>
        <mxCell id="DnhSPiRuNs9u9aYc0qHc-65" value="" style="rhombus;whiteSpace=wrap;html=1;" vertex="1" parent="1">
          <mxGeometry x="1120" y="490" width="80" height="70" as="geometry" />
        </mxCell>
        <mxCell id="DnhSPiRuNs9u9aYc0qHc-66" value="" style="rhombus;whiteSpace=wrap;html=1;" vertex="1" parent="1">
          <mxGeometry x="685" y="480" width="80" height="70" as="geometry" />
        </mxCell>
        <mxCell id="DnhSPiRuNs9u9aYc0qHc-67" value="" style="rhombus;whiteSpace=wrap;html=1;" vertex="1" parent="1">
          <mxGeometry x="1360" y="490" width="80" height="70" as="geometry" />
        </mxCell>
        <mxCell id="DnhSPiRuNs9u9aYc0qHc-68" value="" style="rhombus;whiteSpace=wrap;html=1;" vertex="1" parent="1">
          <mxGeometry x="1240" y="930" width="80" height="70" as="geometry" />
        </mxCell>
        <mxCell id="DnhSPiRuNs9u9aYc0qHc-69" value="" style="rhombus;whiteSpace=wrap;html=1;" vertex="1" parent="1">
          <mxGeometry x="1520" y="710" width="80" height="70" as="geometry" />
        </mxCell>
        <mxCell id="DnhSPiRuNs9u9aYc0qHc-70" value="Cliente" style="shape=table;startSize=30;container=1;collapsible=1;childLayout=tableLayout;fixedRows=1;rowLines=0;fontStyle=1;align=center;resizeLast=1;" vertex="1" parent="1">
          <mxGeometry x="1410" y="890" width="250" height="150" as="geometry" />
        </mxCell>
        <mxCell id="DnhSPiRuNs9u9aYc0qHc-71" value="" style="shape=partialRectangle;collapsible=0;dropTarget=0;pointerEvents=0;fillColor=none;points=[[0,0.5],[1,0.5]];portConstraint=eastwest;top=0;left=0;right=0;bottom=1;" vertex="1" parent="DnhSPiRuNs9u9aYc0qHc-70">
          <mxGeometry y="30" width="250" height="30" as="geometry" />
        </mxCell>
        <mxCell id="DnhSPiRuNs9u9aYc0qHc-72" value="PK" style="shape=partialRectangle;overflow=hidden;connectable=0;fillColor=none;top=0;left=0;bottom=0;right=0;fontStyle=1;" vertex="1" parent="DnhSPiRuNs9u9aYc0qHc-71">
          <mxGeometry width="30" height="30" as="geometry">
            <mxRectangle width="30" height="30" as="alternateBounds" />
          </mxGeometry>
        </mxCell>
        <mxCell id="DnhSPiRuNs9u9aYc0qHc-73" value="id int NOT NULL" style="shape=partialRectangle;overflow=hidden;connectable=0;fillColor=none;top=0;left=0;bottom=0;right=0;align=left;spacingLeft=6;fontStyle=5;" vertex="1" parent="DnhSPiRuNs9u9aYc0qHc-71">
          <mxGeometry x="30" width="220" height="30" as="geometry">
            <mxRectangle width="220" height="30" as="alternateBounds" />
          </mxGeometry>
        </mxCell>
        <mxCell id="DnhSPiRuNs9u9aYc0qHc-74" value="" style="shape=partialRectangle;collapsible=0;dropTarget=0;pointerEvents=0;fillColor=none;points=[[0,0.5],[1,0.5]];portConstraint=eastwest;top=0;left=0;right=0;bottom=0;" vertex="1" parent="DnhSPiRuNs9u9aYc0qHc-70">
          <mxGeometry y="60" width="250" height="90" as="geometry" />
        </mxCell>
        <mxCell id="DnhSPiRuNs9u9aYc0qHc-75" value="" style="shape=partialRectangle;overflow=hidden;connectable=0;fillColor=none;top=0;left=0;bottom=0;right=0;" vertex="1" parent="DnhSPiRuNs9u9aYc0qHc-74">
          <mxGeometry width="30" height="90" as="geometry">
            <mxRectangle width="30" height="90" as="alternateBounds" />
          </mxGeometry>
        </mxCell>
        <mxCell id="DnhSPiRuNs9u9aYc0qHc-76" value="nombre char(50) NOT NULL" style="shape=partialRectangle;overflow=hidden;connectable=0;fillColor=none;top=0;left=0;bottom=0;right=0;align=left;spacingLeft=6;" vertex="1" parent="DnhSPiRuNs9u9aYc0qHc-74">
          <mxGeometry x="30" width="220" height="90" as="geometry">
            <mxRectangle width="220" height="90" as="alternateBounds" />
          </mxGeometry>
        </mxCell>
        <mxCell id="DnhSPiRuNs9u9aYc0qHc-77" value="" style="endArrow=classicThin;startArrow=none;endFill=1;startFill=0;entryX=0.5;entryY=0;entryDx=0;entryDy=0;exitX=0.5;exitY=1;exitDx=0;exitDy=0;edgeStyle=orthogonalEdgeStyle;" edge="1" parent="1" source="DnhSPiRuNs9u9aYc0qHc-63" target="DnhSPiRuNs9u9aYc0qHc-40">
          <mxGeometry width="100" height="100" relative="1" as="geometry">
            <mxPoint x="910" y="240" as="sourcePoint" />
            <mxPoint x="960" y="290" as="targetPoint" />
          </mxGeometry>
        </mxCell>
        <mxCell id="DnhSPiRuNs9u9aYc0qHc-78" value="" style="endArrow=classicThin;startArrow=none;endFill=1;startFill=0;entryX=0;entryY=0.5;entryDx=0;entryDy=0;edgeStyle=orthogonalEdgeStyle;exitX=0.5;exitY=0;exitDx=0;exitDy=0;" edge="1" parent="1" source="DnhSPiRuNs9u9aYc0qHc-63" target="DnhSPiRuNs9u9aYc0qHc-59">
          <mxGeometry width="100" height="100" relative="1" as="geometry">
            <mxPoint x="1040" y="50" as="sourcePoint" />
            <mxPoint x="1040" y="150" as="targetPoint" />
          </mxGeometry>
        </mxCell>
        <mxCell id="DnhSPiRuNs9u9aYc0qHc-79" value="" style="endArrow=classicThin;startArrow=none;endFill=1;startFill=0;entryX=1;entryY=0.5;entryDx=0;entryDy=0;edgeStyle=orthogonalEdgeStyle;exitX=0.5;exitY=0;exitDx=0;exitDy=0;" edge="1" parent="1" source="DnhSPiRuNs9u9aYc0qHc-64" target="DnhSPiRuNs9u9aYc0qHc-59">
          <mxGeometry width="100" height="100" relative="1" as="geometry">
            <mxPoint x="1860" y="196" as="sourcePoint" />
            <mxPoint x="2034" y="140" as="targetPoint" />
          </mxGeometry>
        </mxCell>
        <mxCell id="DnhSPiRuNs9u9aYc0qHc-80" value="" style="endArrow=classicThin;startArrow=none;endFill=1;startFill=0;entryX=0.5;entryY=0;entryDx=0;entryDy=0;exitX=0.5;exitY=1;exitDx=0;exitDy=0;edgeStyle=orthogonalEdgeStyle;" edge="1" parent="1">
          <mxGeometry width="100" height="100" relative="1" as="geometry">
            <mxPoint x="1584.63" y="220" as="sourcePoint" />
            <mxPoint x="1584.63" y="320" as="targetPoint" />
          </mxGeometry>
        </mxCell>
        <mxCell id="DnhSPiRuNs9u9aYc0qHc-81" value="" style="endArrow=classicThin;startArrow=none;endFill=1;startFill=0;entryX=0;entryY=0.5;entryDx=0;entryDy=0;edgeStyle=orthogonalEdgeStyle;exitX=0.5;exitY=0;exitDx=0;exitDy=0;" edge="1" parent="1" source="DnhSPiRuNs9u9aYc0qHc-66" target="DnhSPiRuNs9u9aYc0qHc-44">
          <mxGeometry width="100" height="100" relative="1" as="geometry">
            <mxPoint x="620" y="435" as="sourcePoint" />
            <mxPoint x="795" y="390" as="targetPoint" />
          </mxGeometry>
        </mxCell>
        <mxCell id="DnhSPiRuNs9u9aYc0qHc-82" value="" style="endArrow=none;startArrow=none;endFill=1;startFill=0;entryX=0.5;entryY=1;entryDx=0;entryDy=0;edgeStyle=orthogonalEdgeStyle;exitX=0.5;exitY=0;exitDx=0;exitDy=0;" edge="1" parent="1" source="DnhSPiRuNs9u9aYc0qHc-17" target="DnhSPiRuNs9u9aYc0qHc-66">
          <mxGeometry width="100" height="100" relative="1" as="geometry">
            <mxPoint x="735" y="490" as="sourcePoint" />
            <mxPoint x="860" y="435" as="targetPoint" />
          </mxGeometry>
        </mxCell>
        <mxCell id="DnhSPiRuNs9u9aYc0qHc-83" value="" style="endArrow=none;startArrow=none;endFill=1;startFill=0;entryX=1;entryY=0.5;entryDx=0;entryDy=0;edgeStyle=orthogonalEdgeStyle;exitX=0.5;exitY=0;exitDx=0;exitDy=0;" edge="1" parent="1" source="DnhSPiRuNs9u9aYc0qHc-65" target="DnhSPiRuNs9u9aYc0qHc-44">
          <mxGeometry width="100" height="100" relative="1" as="geometry">
            <mxPoint x="1140" y="465" as="sourcePoint" />
            <mxPoint x="1265" y="410" as="targetPoint" />
          </mxGeometry>
        </mxCell>
        <mxCell id="DnhSPiRuNs9u9aYc0qHc-84" value="" style="endArrow=none;startArrow=none;endFill=1;startFill=0;entryX=0.5;entryY=1;entryDx=0;entryDy=0;edgeStyle=orthogonalEdgeStyle;" edge="1" parent="1" source="DnhSPiRuNs9u9aYc0qHc-47" target="DnhSPiRuNs9u9aYc0qHc-65">
          <mxGeometry width="100" height="100" relative="1" as="geometry">
            <mxPoint x="735" y="650" as="sourcePoint" />
            <mxPoint x="735" y="560" as="targetPoint" />
          </mxGeometry>
        </mxCell>
        <mxCell id="DnhSPiRuNs9u9aYc0qHc-85" value="" style="endArrow=none;startArrow=none;endFill=1;startFill=0;entryX=0;entryY=0.5;entryDx=0;entryDy=0;edgeStyle=orthogonalEdgeStyle;exitX=0.5;exitY=0;exitDx=0;exitDy=0;" edge="1" parent="1" source="DnhSPiRuNs9u9aYc0qHc-67" target="DnhSPiRuNs9u9aYc0qHc-37">
          <mxGeometry width="100" height="100" relative="1" as="geometry">
            <mxPoint x="1400" y="455" as="sourcePoint" />
            <mxPoint x="1340" y="390" as="targetPoint" />
          </mxGeometry>
        </mxCell>
        <mxCell id="DnhSPiRuNs9u9aYc0qHc-86" value="" style="endArrow=none;startArrow=none;endFill=1;startFill=0;entryX=0.5;entryY=1;entryDx=0;entryDy=0;edgeStyle=orthogonalEdgeStyle;exitX=0.5;exitY=0;exitDx=0;exitDy=0;" edge="1" parent="1" source="DnhSPiRuNs9u9aYc0qHc-47" target="DnhSPiRuNs9u9aYc0qHc-67">
          <mxGeometry width="100" height="100" relative="1" as="geometry">
            <mxPoint x="1280" y="650" as="sourcePoint" />
            <mxPoint x="1170" y="570" as="targetPoint" />
          </mxGeometry>
        </mxCell>
        <mxCell id="DnhSPiRuNs9u9aYc0qHc-87" value="" style="endArrow=classicThin;startArrow=none;endFill=1;startFill=0;edgeStyle=orthogonalEdgeStyle;exitX=0;exitY=0.5;exitDx=0;exitDy=0;entryX=1;entryY=0.5;entryDx=0;entryDy=0;" edge="1" parent="1" source="DnhSPiRuNs9u9aYc0qHc-69" target="DnhSPiRuNs9u9aYc0qHc-51">
          <mxGeometry width="100" height="100" relative="1" as="geometry">
            <mxPoint x="1440" y="635" as="sourcePoint" />
            <mxPoint x="1580" y="590" as="targetPoint" />
          </mxGeometry>
        </mxCell>
        <mxCell id="DnhSPiRuNs9u9aYc0qHc-88" value="" style="endArrow=none;startArrow=none;endFill=1;startFill=0;entryX=0;entryY=0.5;entryDx=0;entryDy=0;edgeStyle=orthogonalEdgeStyle;exitX=1;exitY=0.5;exitDx=0;exitDy=0;" edge="1" parent="1" source="DnhSPiRuNs9u9aYc0qHc-69" target="DnhSPiRuNs9u9aYc0qHc-30">
          <mxGeometry width="100" height="100" relative="1" as="geometry">
            <mxPoint x="1610" y="625" as="sourcePoint" />
            <mxPoint x="1670" y="560" as="targetPoint" />
          </mxGeometry>
        </mxCell>
        <mxCell id="DnhSPiRuNs9u9aYc0qHc-89" value="" style="endArrow=classicThin;startArrow=none;endFill=1;startFill=0;edgeStyle=orthogonalEdgeStyle;exitX=0.5;exitY=0;exitDx=0;exitDy=0;" edge="1" parent="1" source="DnhSPiRuNs9u9aYc0qHc-68">
          <mxGeometry width="100" height="100" relative="1" as="geometry">
            <mxPoint x="1350" y="860" as="sourcePoint" />
            <mxPoint x="1280" y="790" as="targetPoint" />
          </mxGeometry>
        </mxCell>
        <mxCell id="DnhSPiRuNs9u9aYc0qHc-90" value="" style="endArrow=none;startArrow=none;endFill=1;startFill=0;entryX=-0.007;entryY=0.17;entryDx=0;entryDy=0;edgeStyle=orthogonalEdgeStyle;exitX=1;exitY=0.5;exitDx=0;exitDy=0;entryPerimeter=0;" edge="1" parent="1" source="DnhSPiRuNs9u9aYc0qHc-68" target="DnhSPiRuNs9u9aYc0qHc-74">
          <mxGeometry width="100" height="100" relative="1" as="geometry">
            <mxPoint x="1330" y="880" as="sourcePoint" />
            <mxPoint x="1440" y="880" as="targetPoint" />
          </mxGeometry>
        </mxCell>
        <mxCell id="DnhSPiRuNs9u9aYc0qHc-91" value="GLPTermofusion" style="shape=table;startSize=30;container=1;collapsible=1;childLayout=tableLayout;fixedRows=1;rowLines=0;fontStyle=1;align=center;resizeLast=1;" vertex="1" parent="1">
          <mxGeometry x="880" y="-310" width="250" height="100" as="geometry" />
        </mxCell>
        <mxCell id="DnhSPiRuNs9u9aYc0qHc-92" value="" style="shape=partialRectangle;collapsible=0;dropTarget=0;pointerEvents=0;fillColor=none;points=[[0,0.5],[1,0.5]];portConstraint=eastwest;top=0;left=0;right=0;bottom=1;" vertex="1" parent="DnhSPiRuNs9u9aYc0qHc-91">
          <mxGeometry y="30" width="250" height="30" as="geometry" />
        </mxCell>
        <mxCell id="DnhSPiRuNs9u9aYc0qHc-93" value="PK" style="shape=partialRectangle;overflow=hidden;connectable=0;fillColor=none;top=0;left=0;bottom=0;right=0;fontStyle=1;" vertex="1" parent="DnhSPiRuNs9u9aYc0qHc-92">
          <mxGeometry width="30" height="30" as="geometry">
            <mxRectangle width="30" height="30" as="alternateBounds" />
          </mxGeometry>
        </mxCell>
        <mxCell id="DnhSPiRuNs9u9aYc0qHc-94" value="id int not null" style="shape=partialRectangle;overflow=hidden;connectable=0;fillColor=none;top=0;left=0;bottom=0;right=0;align=left;spacingLeft=6;fontStyle=5;" vertex="1" parent="DnhSPiRuNs9u9aYc0qHc-92">
          <mxGeometry x="30" width="220" height="30" as="geometry">
            <mxRectangle width="220" height="30" as="alternateBounds" />
          </mxGeometry>
        </mxCell>
        <mxCell id="DnhSPiRuNs9u9aYc0qHc-95" value="" style="shape=partialRectangle;collapsible=0;dropTarget=0;pointerEvents=0;fillColor=none;points=[[0,0.5],[1,0.5]];portConstraint=eastwest;top=0;left=0;right=0;bottom=0;" vertex="1" parent="DnhSPiRuNs9u9aYc0qHc-91">
          <mxGeometry y="60" width="250" height="30" as="geometry" />
        </mxCell>
        <mxCell id="DnhSPiRuNs9u9aYc0qHc-96" value="" style="shape=partialRectangle;overflow=hidden;connectable=0;fillColor=none;top=0;left=0;bottom=0;right=0;" vertex="1" parent="DnhSPiRuNs9u9aYc0qHc-95">
          <mxGeometry width="30" height="30" as="geometry">
            <mxRectangle width="30" height="30" as="alternateBounds" />
          </mxGeometry>
        </mxCell>
        <mxCell id="DnhSPiRuNs9u9aYc0qHc-97" value="nombre char(50) NOT NULL" style="shape=partialRectangle;overflow=hidden;connectable=0;fillColor=none;top=0;left=0;bottom=0;right=0;align=left;spacingLeft=6;" vertex="1" parent="DnhSPiRuNs9u9aYc0qHc-95">
          <mxGeometry x="30" width="220" height="30" as="geometry">
            <mxRectangle width="220" height="30" as="alternateBounds" />
          </mxGeometry>
        </mxCell>
        <mxCell id="DnhSPiRuNs9u9aYc0qHc-100" value="" style="rhombus;whiteSpace=wrap;html=1;" vertex="1" parent="1">
          <mxGeometry x="1170" y="-185.00000000000003" width="80" height="70" as="geometry" />
        </mxCell>
        <mxCell id="DnhSPiRuNs9u9aYc0qHc-101" value="" style="endArrow=none;startArrow=none;endFill=1;startFill=0;entryX=0.997;entryY=0.056;entryDx=0;entryDy=0;edgeStyle=orthogonalEdgeStyle;exitX=0.5;exitY=0;exitDx=0;exitDy=0;entryPerimeter=0;" edge="1" parent="1" source="DnhSPiRuNs9u9aYc0qHc-100" target="DnhSPiRuNs9u9aYc0qHc-95">
          <mxGeometry width="100" height="100" relative="1" as="geometry">
            <mxPoint x="1185" y="-210.00000000000003" as="sourcePoint" />
            <mxPoint x="1145" y="-250.00000000000003" as="targetPoint" />
          </mxGeometry>
        </mxCell>
        <mxCell id="DnhSPiRuNs9u9aYc0qHc-102" value="" style="endArrow=none;startArrow=classic;endFill=1;startFill=1;entryX=0.5;entryY=1;entryDx=0;entryDy=0;edgeStyle=orthogonalEdgeStyle;exitX=0.237;exitY=-0.003;exitDx=0;exitDy=0;exitPerimeter=0;" edge="1" parent="1" target="DnhSPiRuNs9u9aYc0qHc-100" source="DnhSPiRuNs9u9aYc0qHc-55">
          <mxGeometry width="100" height="100" relative="1" as="geometry">
            <mxPoint x="1205" y="-10" as="sourcePoint" />
            <mxPoint x="780" y="-115.00000000000003" as="targetPoint" />
          </mxGeometry>
        </mxCell>
        <mxCell id="DnhSPiRuNs9u9aYc0qHc-103" value="" style="rhombus;whiteSpace=wrap;html=1;" vertex="1" parent="1">
          <mxGeometry x="1280" y="-185.00000000000003" width="80" height="70" as="geometry" />
        </mxCell>
        <mxCell id="DnhSPiRuNs9u9aYc0qHc-104" value="" style="endArrow=none;startArrow=none;endFill=1;startFill=0;entryX=0;entryY=0.5;entryDx=0;entryDy=0;edgeStyle=orthogonalEdgeStyle;exitX=0.5;exitY=0;exitDx=0;exitDy=0;" edge="1" parent="1" source="DnhSPiRuNs9u9aYc0qHc-103" target="DnhSPiRuNs9u9aYc0qHc-14">
          <mxGeometry width="100" height="100" relative="1" as="geometry">
            <mxPoint x="1295" y="-210.00000000000003" as="sourcePoint" />
            <mxPoint x="1239" y="-248" as="targetPoint" />
          </mxGeometry>
        </mxCell>
        <mxCell id="DnhSPiRuNs9u9aYc0qHc-105" value="" style="endArrow=none;startArrow=classic;endFill=1;startFill=1;entryX=0.5;entryY=1;entryDx=0;entryDy=0;edgeStyle=orthogonalEdgeStyle;exitX=0.237;exitY=-0.003;exitDx=0;exitDy=0;exitPerimeter=0;" edge="1" parent="1" target="DnhSPiRuNs9u9aYc0qHc-103">
          <mxGeometry width="100" height="100" relative="1" as="geometry">
            <mxPoint x="1319" as="sourcePoint" />
            <mxPoint x="890" y="-115.00000000000003" as="targetPoint" />
          </mxGeometry>
        </mxCell>
      </root>
    </mxGraphModel>
  </diagram>
</mxfile>
